# Blender 3.3.1
# www.blender.org
mtllib 2x2Cubicle.mtl
g 2x2Cubicle_2x2Cubicle
v 1.756888 -0.237999 -6.428928
v 1.756888 1.538001 -6.428927
v 1.856888 -0.237999 -6.428928
v 1.856888 1.538001 -6.428927
v 1.756888 -0.237999 -4.428928
v 1.756888 1.538001 -4.428928
v 1.856888 -0.237999 -4.428928
v 1.856888 1.538001 -4.428928
v 1.806889 -0.237999 -6.347679
v 1.806889 1.538001 -6.347679
v 1.806889 -0.237999 -6.427679
v 1.806889 1.538001 -6.427679
v 3.306889 -0.237999 -6.347679
v 3.306889 1.538001 -6.347679
v 3.306889 -0.237999 -6.427679
v 3.306889 1.538001 -6.427679
v 1.806888 -0.237999 -4.434053
v 1.806888 1.538001 -4.434053
v 1.806888 -0.237999 -4.514053
v 1.806888 1.538001 -4.514053
v 3.306888 -0.237999 -4.434053
v 3.306888 1.538001 -4.434053
v 3.306888 -0.237999 -4.514053
v 3.306888 1.538001 -4.514053
v 1.756888 -0.237999 -4.853034
v 1.756888 1.538001 -4.853034
v 1.856888 -0.237999 -4.853034
v 1.856888 1.538001 -4.853034
v 1.756888 -0.238000 -2.404822
v 1.756888 1.538000 -2.404822
v 1.856888 -0.238000 -2.404822
v 1.856888 1.538000 -2.404822
v 0.306888 -0.237999 -6.347679
v 0.306888 1.538001 -6.347679
v 0.306888 -0.237999 -6.427679
v 0.306888 1.538001 -6.427679
v 1.806888 -0.237999 -6.347679
v 1.806888 1.538001 -6.347679
v 1.806888 -0.237999 -6.427679
v 1.806888 1.538001 -6.427679
v 0.306888 -0.237999 -4.434053
v 0.306888 1.538001 -4.434053
v 0.306888 -0.237999 -4.514053
v 0.306888 1.538001 -4.514053
v 1.806888 -0.237999 -4.434053
v 1.806888 1.538001 -4.434053
v 1.806888 -0.237999 -4.514053
v 1.806888 1.538001 -4.514053
v 1.812767 0.033194 -2.377038
v 1.812767 1.539391 -2.377038
v 1.812767 0.033194 -2.477038
v 1.812767 1.539392 -2.477038
v 3.312767 0.033194 -2.377038
v 3.312767 1.539391 -2.377038
v 3.312767 0.033194 -2.477038
v 3.312767 1.539392 -2.477038
v 0.312767 0.033194 -2.377038
v 0.312767 1.539391 -2.377038
v 0.312767 0.033194 -2.477038
v 0.312767 1.539392 -2.477038
v 1.812767 0.033194 -2.377038
v 1.812767 1.539391 -2.377038
v 1.812767 0.033194 -2.477038
v 1.812767 1.539392 -2.477038
v 1.896461 1.532779 -2.360988
v 1.896462 1.532780 -6.473167
v 1.896461 1.682779 -2.360988
v 1.896462 1.682780 -6.473166
v 1.746461 1.532779 -2.360988
v 1.746462 1.532780 -6.473167
v 1.746461 1.682779 -2.360988
v 1.746462 1.682780 -6.473166
v 1.749048 -0.000433 -6.320862
v 1.749048 1.680879 -6.320862
v 1.749048 -0.000433 -6.470862
v 1.749048 1.680879 -6.470861
v 1.899048 -0.000433 -6.320862
v 1.899048 1.680879 -6.320862
v 1.899048 -0.000433 -6.470862
v 1.899048 1.680879 -6.470861
v 1.749048 -0.000434 -2.378173
v 1.749048 1.680878 -2.378173
v 1.749048 -0.000434 -2.528173
v 1.749048 1.680878 -2.528173
v 1.899048 -0.000434 -2.378173
v 1.899048 1.680878 -2.378173
v 1.899048 -0.000434 -2.528173
v 1.899048 1.680878 -2.528173
v 0.247597 -0.000434 -2.358406
v 0.247597 1.680878 -2.358406
v 0.247597 -0.000434 -2.508406
v 0.247597 1.680878 -2.508406
v 0.397597 -0.000434 -2.358406
v 0.397597 1.680878 -2.358406
v 0.397597 -0.000434 -2.508406
v 0.397597 1.680878 -2.508406
v 3.252040 -0.000434 -2.358406
v 3.252040 1.680878 -2.358406
v 3.252040 -0.000434 -2.508406
v 3.252040 1.680878 -2.508406
v 3.402040 -0.000434 -2.358406
v 3.402040 1.680878 -2.358406
v 3.402040 -0.000434 -2.508406
v 3.402040 1.680878 -2.508406
v 0.247597 -0.000433 -4.401607
v 0.247597 1.680879 -4.401607
v 0.247597 -0.000433 -4.551606
v 0.247597 1.680879 -4.551606
v 0.397597 -0.000433 -4.401607
v 0.397597 1.680879 -4.401607
v 0.397597 -0.000433 -4.551606
v 0.397597 1.680879 -4.551606
v 3.252040 -0.000433 -4.401607
v 3.252040 1.680879 -4.401607
v 3.252040 -0.000433 -4.551606
v 3.252040 1.680879 -4.551606
v 3.402040 -0.000433 -4.401607
v 3.402040 1.680879 -4.401607
v 3.402040 -0.000433 -4.551606
v 3.402040 1.680879 -4.551606
v 3.252040 -0.000433 -6.319092
v 3.252040 1.680879 -6.319092
v 3.252040 -0.000433 -6.469091
v 3.252040 1.680879 -6.469090
v 3.402040 -0.000433 -6.319092
v 3.402040 1.680879 -6.319092
v 3.402040 -0.000433 -6.469091
v 3.402040 1.680879 -6.469090
v 0.247597 -0.000433 -6.319092
v 0.247597 1.680879 -6.319092
v 0.247597 -0.000433 -6.469091
v 0.247597 1.680879 -6.469090
v 0.397597 -0.000433 -6.319092
v 0.397597 1.680879 -6.319092
v 0.397597 -0.000433 -6.469091
v 0.397597 1.680879 -6.469090
v 3.400355 1.532780 -4.551443
v 0.242569 1.532780 -4.551445
v 3.400355 1.682780 -4.551443
v 0.242569 1.682780 -4.551444
v 3.400355 1.532780 -4.401443
v 0.242569 1.532780 -4.401444
v 3.400355 1.682780 -4.401443
v 0.242569 1.682780 -4.401444
v 3.400355 1.532779 -2.508875
v 0.242569 1.532779 -2.508876
v 3.400355 1.682779 -2.508875
v 0.242569 1.682779 -2.508876
v 3.400355 1.532779 -2.358875
v 0.242569 1.532779 -2.358876
v 3.400355 1.682779 -2.358875
v 0.242569 1.682779 -2.358876
v 3.400355 1.532780 -6.469509
v 0.242569 1.532780 -6.469511
v 3.400355 1.682780 -6.469509
v 0.242569 1.682780 -6.469510
v 3.400355 1.532780 -6.319510
v 0.242569 1.532780 -6.319510
v 3.400355 1.682780 -6.319509
v 0.242569 1.682780 -6.319510
vn -0.0000 -0.0000 -1.0000
vn 1.0000 -0.0000 -0.0000
vn -0.0000 -0.0000 1.0000
vn -1.0000 -0.0000 -0.0000
vn -0.0000 -1.0000 -0.0000
vn -0.0000 1.0000 -0.0000
vt 0.375000 0.000000
vt 0.375000 1.000000
vt 0.125000 0.750000
vt 0.625000 0.000000
vt 0.625000 1.000000
vt 0.875000 0.750000
vt 0.375000 0.250000
vt 0.125000 0.500000
vt 0.625000 0.250000
vt 0.875000 0.500000
vt 0.375000 0.750000
vt 0.625000 0.750000
vt 0.375000 0.500000
vt 0.625000 0.500000
vt 0.375000 0.000000
vt 0.375000 1.000000
vt 0.125000 0.750000
vt 0.625000 0.000000
vt 0.625000 1.000000
vt 0.875000 0.750000
vt 0.375000 0.250000
vt 0.125000 0.500000
vt 0.625000 0.250000
vt 0.875000 0.500000
vt 0.375000 0.750000
vt 0.625000 0.750000
vt 0.375000 0.500000
vt 0.625000 0.500000
vt 0.375000 0.000000
vt 0.375000 1.000000
vt 0.125000 0.750000
vt 0.625000 0.000000
vt 0.625000 1.000000
vt 0.875000 0.750000
vt 0.375000 0.250000
vt 0.125000 0.500000
vt 0.625000 0.250000
vt 0.875000 0.500000
vt 0.375000 0.750000
vt 0.625000 0.750000
vt 0.375000 0.500000
vt 0.625000 0.500000
vt 0.375000 0.000000
vt 0.375000 1.000000
vt 0.125000 0.750000
vt 0.625000 0.000000
vt 0.625000 1.000000
vt 0.875000 0.750000
vt 0.375000 0.250000
vt 0.125000 0.500000
vt 0.625000 0.250000
vt 0.875000 0.500000
vt 0.375000 0.750000
vt 0.625000 0.750000
vt 0.375000 0.500000
vt 0.625000 0.500000
vt 0.375000 0.000000
vt 0.375000 1.000000
vt 0.125000 0.750000
vt 0.625000 0.000000
vt 0.625000 1.000000
vt 0.875000 0.750000
vt 0.375000 0.250000
vt 0.125000 0.500000
vt 0.625000 0.250000
vt 0.875000 0.500000
vt 0.375000 0.750000
vt 0.625000 0.750000
vt 0.375000 0.500000
vt 0.625000 0.500000
vt 0.375000 0.000000
vt 0.375000 1.000000
vt 0.125000 0.750000
vt 0.625000 0.000000
vt 0.625000 1.000000
vt 0.875000 0.750000
vt 0.375000 0.250000
vt 0.125000 0.500000
vt 0.625000 0.250000
vt 0.875000 0.500000
vt 0.375000 0.750000
vt 0.625000 0.750000
vt 0.375000 0.500000
vt 0.625000 0.500000
vt 0.375000 0.000000
vt 0.375000 1.000000
vt 0.125000 0.750000
vt 0.625000 0.000000
vt 0.625000 1.000000
vt 0.875000 0.750000
vt 0.375000 0.250000
vt 0.125000 0.500000
vt 0.625000 0.250000
vt 0.875000 0.500000
vt 0.375000 0.750000
vt 0.625000 0.750000
vt 0.375000 0.500000
vt 0.625000 0.500000
vt 0.375000 0.000000
vt 0.375000 1.000000
vt 0.125000 0.750000
vt 0.625000 0.000000
vt 0.625000 1.000000
vt 0.875000 0.750000
vt 0.375000 0.250000
vt 0.125000 0.500000
vt 0.625000 0.250000
vt 0.875000 0.500000
vt 0.375000 0.750000
vt 0.625000 0.750000
vt 0.375000 0.500000
vt 0.625000 0.500000
vt 0.375000 0.000000
vt 0.375000 1.000000
vt 0.125000 0.750000
vt 0.625000 0.000000
vt 0.625000 1.000000
vt 0.875000 0.750000
vt 0.375000 0.250000
vt 0.125000 0.500000
vt 0.625000 0.250000
vt 0.875000 0.500000
vt 0.375000 0.750000
vt 0.625000 0.750000
vt 0.375000 0.500000
vt 0.625000 0.500000
vt 0.375000 0.000000
vt 0.375000 1.000000
vt 0.125000 0.750000
vt 0.625000 0.000000
vt 0.625000 1.000000
vt 0.875000 0.750000
vt 0.375000 0.250000
vt 0.125000 0.500000
vt 0.625000 0.250000
vt 0.875000 0.500000
vt 0.375000 0.750000
vt 0.625000 0.750000
vt 0.375000 0.500000
vt 0.625000 0.500000
vt 0.375000 0.000000
vt 0.375000 1.000000
vt 0.125000 0.750000
vt 0.625000 0.000000
vt 0.625000 1.000000
vt 0.875000 0.750000
vt 0.375000 0.250000
vt 0.125000 0.500000
vt 0.625000 0.250000
vt 0.875000 0.500000
vt 0.375000 0.750000
vt 0.625000 0.750000
vt 0.375000 0.500000
vt 0.625000 0.500000
vt 0.375000 0.000000
vt 0.375000 1.000000
vt 0.125000 0.750000
vt 0.625000 0.000000
vt 0.625000 1.000000
vt 0.875000 0.750000
vt 0.375000 0.250000
vt 0.125000 0.500000
vt 0.625000 0.250000
vt 0.875000 0.500000
vt 0.375000 0.750000
vt 0.625000 0.750000
vt 0.375000 0.500000
vt 0.625000 0.500000
vt 0.375000 0.000000
vt 0.375000 1.000000
vt 0.125000 0.750000
vt 0.625000 0.000000
vt 0.625000 1.000000
vt 0.875000 0.750000
vt 0.375000 0.250000
vt 0.125000 0.500000
vt 0.625000 0.250000
vt 0.875000 0.500000
vt 0.375000 0.750000
vt 0.625000 0.750000
vt 0.375000 0.500000
vt 0.625000 0.500000
vt 0.375000 0.000000
vt 0.375000 1.000000
vt 0.125000 0.750000
vt 0.625000 0.000000
vt 0.625000 1.000000
vt 0.875000 0.750000
vt 0.375000 0.250000
vt 0.125000 0.500000
vt 0.625000 0.250000
vt 0.875000 0.500000
vt 0.375000 0.750000
vt 0.625000 0.750000
vt 0.375000 0.500000
vt 0.625000 0.500000
vt 0.375000 0.000000
vt 0.375000 1.000000
vt 0.125000 0.750000
vt 0.625000 0.000000
vt 0.625000 1.000000
vt 0.875000 0.750000
vt 0.375000 0.250000
vt 0.125000 0.500000
vt 0.625000 0.250000
vt 0.875000 0.500000
vt 0.375000 0.750000
vt 0.625000 0.750000
vt 0.375000 0.500000
vt 0.625000 0.500000
vt 0.375000 0.000000
vt 0.375000 1.000000
vt 0.125000 0.750000
vt 0.625000 0.000000
vt 0.625000 1.000000
vt 0.875000 0.750000
vt 0.375000 0.250000
vt 0.125000 0.500000
vt 0.625000 0.250000
vt 0.875000 0.500000
vt 0.375000 0.750000
vt 0.625000 0.750000
vt 0.375000 0.500000
vt 0.625000 0.500000
vt 0.375000 0.000000
vt 0.375000 1.000000
vt 0.125000 0.750000
vt 0.625000 0.000000
vt 0.625000 1.000000
vt 0.875000 0.750000
vt 0.375000 0.250000
vt 0.125000 0.500000
vt 0.625000 0.250000
vt 0.875000 0.500000
vt 0.375000 0.750000
vt 0.625000 0.750000
vt 0.375000 0.500000
vt 0.625000 0.500000
vt 0.375000 0.000000
vt 0.375000 1.000000
vt 0.125000 0.750000
vt 0.625000 0.000000
vt 0.625000 1.000000
vt 0.875000 0.750000
vt 0.375000 0.250000
vt 0.125000 0.500000
vt 0.625000 0.250000
vt 0.875000 0.500000
vt 0.375000 0.750000
vt 0.625000 0.750000
vt 0.375000 0.500000
vt 0.625000 0.500000
vt 0.375000 0.000000
vt 0.375000 1.000000
vt 0.125000 0.750000
vt 0.625000 0.000000
vt 0.625000 1.000000
vt 0.875000 0.750000
vt 0.375000 0.250000
vt 0.125000 0.500000
vt 0.625000 0.250000
vt 0.875000 0.500000
vt 0.375000 0.750000
vt 0.625000 0.750000
vt 0.375000 0.500000
vt 0.625000 0.500000
vt 0.375000 0.000000
vt 0.375000 1.000000
vt 0.125000 0.750000
vt 0.625000 0.000000
vt 0.625000 1.000000
vt 0.875000 0.750000
vt 0.375000 0.250000
vt 0.125000 0.500000
vt 0.625000 0.250000
vt 0.875000 0.500000
vt 0.375000 0.750000
vt 0.625000 0.750000
vt 0.375000 0.500000
vt 0.625000 0.500000
s 1
g 2x2Cubicle_CubicleWall
usemtl CubicleWall
f 1/1/1 2/4/1 4/9/1 3/7/1
f 3/7/2 4/9/2 8/14/2 7/13/2
f 7/13/3 8/14/3 6/12/3 5/11/3
f 5/11/4 6/12/4 2/5/4 1/2/4
f 3/8/5 7/13/5 5/11/5 1/3/5
f 8/14/6 4/10/6 2/6/6 6/12/6
f 9/15/4 10/18/4 12/23/4 11/21/4
f 11/21/1 12/23/1 16/28/1 15/27/1
f 15/27/2 16/28/2 14/26/2 13/25/2
f 13/25/3 14/26/3 10/19/3 9/16/3
f 11/22/5 15/27/5 13/25/5 9/17/5
f 16/28/6 12/24/6 10/20/6 14/26/6
f 17/29/4 18/32/4 20/37/4 19/35/4
f 19/35/1 20/37/1 24/42/1 23/41/1
f 23/41/2 24/42/2 22/40/2 21/39/2
f 21/39/3 22/40/3 18/33/3 17/30/3
f 19/36/5 23/41/5 21/39/5 17/31/5
f 24/42/6 20/38/6 18/34/6 22/40/6
f 25/43/1 26/46/1 28/51/1 27/49/1
f 27/49/2 28/51/2 32/56/2 31/55/2
f 31/55/3 32/56/3 30/54/3 29/53/3
f 29/53/4 30/54/4 26/47/4 25/44/4
f 27/50/5 31/55/5 29/53/5 25/45/5
f 32/56/6 28/52/6 26/48/6 30/54/6
f 33/57/4 34/60/4 36/65/4 35/63/4
f 35/63/1 36/65/1 40/70/1 39/69/1
f 39/69/2 40/70/2 38/68/2 37/67/2
f 37/67/3 38/68/3 34/61/3 33/58/3
f 35/64/5 39/69/5 37/67/5 33/59/5
f 40/70/6 36/66/6 34/62/6 38/68/6
f 41/71/4 42/74/4 44/79/4 43/77/4
f 43/77/1 44/79/1 48/84/1 47/83/1
f 47/83/2 48/84/2 46/82/2 45/81/2
f 45/81/3 46/82/3 42/75/3 41/72/3
f 43/78/5 47/83/5 45/81/5 41/73/5
f 48/84/6 44/80/6 42/76/6 46/82/6
f 49/85/4 50/88/4 52/93/4 51/91/4
f 51/91/1 52/93/1 56/98/1 55/97/1
f 55/97/2 56/98/2 54/96/2 53/95/2
f 53/95/3 54/96/3 50/89/3 49/86/3
f 51/92/5 55/97/5 53/95/5 49/87/5
f 56/98/6 52/94/6 50/90/6 54/96/6
f 57/99/4 58/102/4 60/107/4 59/105/4
f 59/105/1 60/107/1 64/112/1 63/111/1
f 63/111/2 64/112/2 62/110/2 61/109/2
f 61/109/3 62/110/3 58/103/3 57/100/3
f 59/106/5 63/111/5 61/109/5 57/101/5
f 64/112/6 60/108/6 58/104/6 62/110/6
g 2x2Cubicle_CubicleMetal
usemtl CubicleMetal
f 65/113/2 66/116/2 68/121/2 67/119/2
f 67/119/6 68/121/6 72/126/6 71/125/6
f 71/125/4 72/126/4 70/124/4 69/123/4
f 69/123/5 70/124/5 66/117/5 65/114/5
f 67/120/3 71/125/3 69/123/3 65/115/3
f 72/126/1 68/122/1 66/118/1 70/124/1
g 2x2Cubicle_CubicleMetal
usemtl CubicleMetal
f 73/127/4 74/130/4 76/135/4 75/133/4
f 75/133/1 76/135/1 80/140/1 79/139/1
f 79/139/2 80/140/2 78/138/2 77/137/2
f 77/137/3 78/138/3 74/131/3 73/128/3
f 75/134/5 79/139/5 77/137/5 73/129/5
f 80/140/6 76/136/6 74/132/6 78/138/6
g 2x2Cubicle_CubicleMetal
usemtl CubicleMetal
f 81/141/4 82/144/4 84/149/4 83/147/4
f 83/147/1 84/149/1 88/154/1 87/153/1
f 87/153/2 88/154/2 86/152/2 85/151/2
f 85/151/3 86/152/3 82/145/3 81/142/3
f 83/148/5 87/153/5 85/151/5 81/143/5
f 88/154/6 84/150/6 82/146/6 86/152/6
g 2x2Cubicle_CubicleMetal
usemtl CubicleMetal
f 89/155/4 90/158/4 92/163/4 91/161/4
f 91/161/1 92/163/1 96/168/1 95/167/1
f 95/167/2 96/168/2 94/166/2 93/165/2
f 93/165/3 94/166/3 90/159/3 89/156/3
f 91/162/5 95/167/5 93/165/5 89/157/5
f 96/168/6 92/164/6 90/160/6 94/166/6
g 2x2Cubicle_CubicleMetal.035
usemtl CubicleMetal.035
f 97/169/4 98/172/4 100/177/4 99/175/4
f 99/175/1 100/177/1 104/182/1 103/181/1
f 103/181/2 104/182/2 102/180/2 101/179/2
f 101/179/3 102/180/3 98/173/3 97/170/3
f 99/176/5 103/181/5 101/179/5 97/171/5
f 104/182/6 100/178/6 98/174/6 102/180/6
g 2x2Cubicle_CubicleMetal.036
usemtl CubicleMetal.036
f 105/183/4 106/186/4 108/191/4 107/189/4
f 107/189/1 108/191/1 112/196/1 111/195/1
f 111/195/2 112/196/2 110/194/2 109/193/2
f 109/193/3 110/194/3 106/187/3 105/184/3
f 107/190/5 111/195/5 109/193/5 105/185/5
f 112/196/6 108/192/6 106/188/6 110/194/6
g 2x2Cubicle_CubicleMetal.037
usemtl CubicleMetal.037
f 113/197/4 114/200/4 116/205/4 115/203/4
f 115/203/1 116/205/1 120/210/1 119/209/1
f 119/209/2 120/210/2 118/208/2 117/207/2
f 117/207/3 118/208/3 114/201/3 113/198/3
f 115/204/5 119/209/5 117/207/5 113/199/5
f 120/210/6 116/206/6 114/202/6 118/208/6
g 2x2Cubicle_CubicleMetal.038
usemtl CubicleMetal.038
f 121/211/4 122/214/4 124/219/4 123/217/4
f 123/217/1 124/219/1 128/224/1 127/223/1
f 127/223/2 128/224/2 126/222/2 125/221/2
f 125/221/3 126/222/3 122/215/3 121/212/3
f 123/218/5 127/223/5 125/221/5 121/213/5
f 128/224/6 124/220/6 122/216/6 126/222/6
g 2x2Cubicle_CubicleMetal.039
usemtl CubicleMetal.039
f 129/225/4 130/228/4 132/233/4 131/231/4
f 131/231/1 132/233/1 136/238/1 135/237/1
f 135/237/2 136/238/2 134/236/2 133/235/2
f 133/235/3 134/236/3 130/229/3 129/226/3
f 131/232/5 135/237/5 133/235/5 129/227/5
f 136/238/6 132/234/6 130/230/6 134/236/6
g 2x2Cubicle_CubicleMetal.040
usemtl CubicleMetal.040
f 137/239/1 138/242/1 140/247/1 139/245/1
f 139/245/6 140/247/6 144/252/6 143/251/6
f 143/251/3 144/252/3 142/250/3 141/249/3
f 141/249/5 142/250/5 138/243/5 137/240/5
f 139/246/2 143/251/2 141/249/2 137/241/2
f 144/252/4 140/248/4 138/244/4 142/250/4
g 2x2Cubicle_CubicleMetal.041
usemtl CubicleMetal.041
f 145/253/1 146/256/1 148/261/1 147/259/1
f 147/259/6 148/261/6 152/266/6 151/265/6
f 151/265/3 152/266/3 150/264/3 149/263/3
f 149/263/5 150/264/5 146/257/5 145/254/5
f 147/260/2 151/265/2 149/263/2 145/255/2
f 152/266/4 148/262/4 146/258/4 150/264/4
g 2x2Cubicle_CubicleMetal.042
usemtl CubicleMetal.042
f 153/267/1 154/270/1 156/275/1 155/273/1
f 155/273/6 156/275/6 160/280/6 159/279/6
f 159/279/3 160/280/3 158/278/3 157/277/3
f 157/277/5 158/278/5 154/271/5 153/268/5
f 155/274/2 159/279/2 157/277/2 153/269/2
f 160/280/4 156/276/4 154/272/4 158/278/4
